<svg width="22" height="18" viewBox="0 0 22 18" fill="none" xmlns="http://www.w3.org/2000/svg">
<path d="M18.9512 4.84375C18.9512 5.04883 18.9512 5.21289 18.9512 5.41797C18.9512 11.1191 14.6445 17.6406 6.72852 17.6406C4.26758 17.6406 2.01172 16.9434 0.125 15.7129C0.453125 15.7539 0.78125 15.7949 1.15039 15.7949C3.16016 15.7949 5.00586 15.0977 6.48242 13.9492C4.5957 13.9082 2.99609 12.6777 2.46289 10.9551C2.75 10.9961 2.99609 11.0371 3.2832 11.0371C3.65234 11.0371 4.0625 10.9551 4.39062 10.873C2.42188 10.4629 0.945312 8.74023 0.945312 6.64844V6.60742C1.51953 6.93555 2.2168 7.09961 2.91406 7.14062C1.72461 6.36133 0.986328 5.04883 0.986328 3.57227C0.986328 2.75195 1.19141 2.01367 1.56055 1.39844C3.69336 3.98242 6.89258 5.70508 10.4609 5.91016C10.3789 5.58203 10.3379 5.25391 10.3379 4.92578C10.3379 2.54688 12.2656 0.619141 14.6445 0.619141C15.875 0.619141 16.9824 1.11133 17.8027 1.97266C18.7461 1.76758 19.6895 1.39844 20.5098 0.90625C20.1816 1.93164 19.5254 2.75195 18.623 3.28516C19.4844 3.20312 20.3457 2.95703 21.084 2.62891C20.5098 3.49023 19.7715 4.22852 18.9512 4.84375Z" fill="white"/>
</svg>
